<svg id="Layer_1" data-name="Layer 1" xmlns="http://www.w3.org/2000/svg" xmlns:xlink="http://www.w3.org/1999/xlink" viewBox="0 0 269.71 269.71"><defs><style>.cls-1{fill:#f2f2f2;}.cls-2{fill:#ffffff;}.cls-3{fill:#ffffff;}</style><linearGradient id="linear-gradient" x1="68.67" y1="65.13" x2="220.25" y2="223.84" gradientUnits="userSpaceOnUse"><stop offset="0" stop-color="#f70"/><stop offset="1" stop-color="#ff0095"/></linearGradient></defs><title>iconfullcolor</title><path class="cls-2" d="M71.85,199.05a10.82,10.82,0,0,0-5.79,1.69A95.17,95.17,0,0,1,201.77,67.44a10.79,10.79,0,1,0,3.83-3.16,100.1,100.1,0,0,0-143,140,10.64,10.64,0,0,0-1.56,5.56,10.79,10.79,0,1,0,10.79-10.79ZM205.3,71a5.85,5.85,0,0,1,4.13-2.83,4.8,4.8,0,0,1,.93-.08A5.85,5.85,0,1,1,204.5,74,5.77,5.77,0,0,1,205.3,71ZM71.85,215.69A5.86,5.86,0,0,1,66,209.84a5.81,5.81,0,0,1,3.64-5.41,5.85,5.85,0,1,1,2.22,11.26Z"/><path class="cls-3" d="M138.24,57.42A80.56,80.56,0,1,0,218.8,138,80.55,80.55,0,0,0,138.24,57.42Zm16.12,124.73h-10.9a4.44,4.44,0,0,1-3.63-1.88l-26.29-37.14a4.45,4.45,0,0,0-8.08,2.57v32a4.45,4.45,0,0,1-4.45,4.45h-8.9a4.45,4.45,0,0,1-4.45-4.45V98.25a4.45,4.45,0,0,1,4.45-4.45h6a4.45,4.45,0,0,1,3.63,1.89L104.09,99,158,175.13A4.45,4.45,0,0,1,154.36,182.15Zm34.46-4.45a4.45,4.45,0,0,1-4.45,4.45h-8.89A4.46,4.46,0,0,1,171,177.7V145.85a4.45,4.45,0,0,0-8.08-2.56l-8.22,11.64a4.45,4.45,0,0,1-7.27,0l-32.76-46.29a4.45,4.45,0,0,1,3.64-7l10.92,0a4.44,4.44,0,0,1,3.63,1.88l14.54,20.56a4.45,4.45,0,0,0,7.27,0L172.39,99l2.32-3.27a4.47,4.47,0,0,1,3.64-1.89h6a4.45,4.45,0,0,1,4.45,4.45Z"/></svg>